# xmcd
#
# Track frame offsets:
# 150
# 12637
# 28909
#
# Disc length: 621 seconds
#
# Revision: 1
# Processed by: cddbd v1.5.2PL0 Copyright (c) Steve Scherf et al.
# Submitted via: CedeCatalogueitor 2.6.0.6 http://personales.ya.com/cdcatalogueitor
#
DISCID=21026b03
DTITLE=The Pepper Pots - Waiting For The Christmas Light
DYEAR=1900
DGENRE=
TTITLE0=Waiting For The Xhristmas Light
TTITLE1=Christams Time Is Here Again
TTITLE2=Your're Still In My Mind
EXTD=
EXTT0=
EXTT1=
EXTT2=
PLAYORDER=
